<mxfile host="Electron" modified="2023-05-19T09:27:58.990Z" agent="Mozilla/5.0 (X11; Linux x86_64) AppleWebKit/537.36 (KHTML, like Gecko) draw.io/21.2.8 Chrome/112.0.5615.165 Electron/24.2.0 Safari/537.36" etag="jOl7h8q4yrVWtzkLSVvj" version="21.2.8" type="device">
  <diagram name="第 1 页" id="17XZw49It7RzbkVdjNOq">
    <mxGraphModel dx="1120" dy="753" grid="1" gridSize="10" guides="1" tooltips="1" connect="1" arrows="1" fold="1" page="1" pageScale="1" pageWidth="827" pageHeight="1169" math="0" shadow="0">
      <root>
        <mxCell id="0" />
        <mxCell id="1" parent="0" />
        <mxCell id="GotR1k97WLTgUT0JYA6_-1" value="" style="group" vertex="1" connectable="0" parent="1">
          <mxGeometry x="79" y="20" width="670" height="721.5600000000001" as="geometry" />
        </mxCell>
        <mxCell id="Z80G_tGN_LpfkRcTgotM-53" value="" style="rounded=0;labelBackgroundColor=none;fontFamily=宋体;fillColor=none;dashed=1;container=0;" parent="GotR1k97WLTgUT0JYA6_-1" vertex="1">
          <mxGeometry y="306.67" width="550" height="263.33" as="geometry" />
        </mxCell>
        <mxCell id="8Lgw7C_YU9cRXEf3LcRd-123" style="edgeStyle=orthogonalEdgeStyle;rounded=0;orthogonalLoop=1;jettySize=auto;html=1;strokeWidth=1;fontSize=16;" parent="GotR1k97WLTgUT0JYA6_-1" source="8Lgw7C_YU9cRXEf3LcRd-122" edge="1">
          <mxGeometry relative="1" as="geometry">
            <mxPoint x="285.4827586206896" y="46.163028030850086" as="targetPoint" />
          </mxGeometry>
        </mxCell>
        <mxCell id="8Lgw7C_YU9cRXEf3LcRd-122" value="页分配算法开始" style="strokeWidth=1;html=1;shape=mxgraph.flowchart.start_1;whiteSpace=wrap;fontSize=16;container=0;" parent="GotR1k97WLTgUT0JYA6_-1" vertex="1">
          <mxGeometry x="200.7586206896552" width="169.44827586206895" height="27.697816818510063" as="geometry" />
        </mxCell>
        <mxCell id="8Lgw7C_YU9cRXEf3LcRd-125" style="edgeStyle=orthogonalEdgeStyle;rounded=0;orthogonalLoop=1;jettySize=auto;html=1;strokeWidth=1;fontSize=16;" parent="GotR1k97WLTgUT0JYA6_-1" source="8Lgw7C_YU9cRXEf3LcRd-124" edge="1">
          <mxGeometry relative="1" as="geometry">
            <mxPoint x="285.4827586206896" y="83.09345045553017" as="targetPoint" />
          </mxGeometry>
        </mxCell>
        <mxCell id="8Lgw7C_YU9cRXEf3LcRd-124" value="选择回退列表中的下一个zone" style="rounded=1;whiteSpace=wrap;html=1;absoluteArcSize=1;arcSize=14;strokeWidth=1;fontSize=16;container=0;" parent="GotR1k97WLTgUT0JYA6_-1" vertex="1">
          <mxGeometry x="138.84482758620686" y="46.163028030850086" width="293.27586206896535" height="18.465211212340034" as="geometry" />
        </mxCell>
        <mxCell id="8Lgw7C_YU9cRXEf3LcRd-127" value="zone 是否为 NULL" style="strokeWidth=1;html=1;shape=mxgraph.flowchart.decision;whiteSpace=wrap;fontSize=16;container=0;" parent="GotR1k97WLTgUT0JYA6_-1" vertex="1">
          <mxGeometry x="164.91379310344826" y="83.09345045553017" width="241.13793103448273" height="46.16302803085009" as="geometry" />
        </mxCell>
        <mxCell id="8Lgw7C_YU9cRXEf3LcRd-129" value="Y" style="text;html=1;align=center;verticalAlign=middle;resizable=0;points=[];autosize=1;strokeColor=none;fillColor=none;fontSize=16;container=0;strokeWidth=1;" parent="GotR1k97WLTgUT0JYA6_-1" vertex="1">
          <mxGeometry x="474.48275862068965" y="84.55933642745526" width="30" height="30" as="geometry" />
        </mxCell>
        <mxCell id="8Lgw7C_YU9cRXEf3LcRd-130" value="页分配算法结束" style="strokeWidth=1;html=1;shape=mxgraph.flowchart.terminator;whiteSpace=wrap;fontSize=16;container=0;" parent="GotR1k97WLTgUT0JYA6_-1" vertex="1">
          <mxGeometry x="200.77165517241377" y="693.86218318149" width="169.44827586206895" height="27.697816818510063" as="geometry" />
        </mxCell>
        <mxCell id="8Lgw7C_YU9cRXEf3LcRd-155" style="edgeStyle=orthogonalEdgeStyle;rounded=0;orthogonalLoop=1;jettySize=auto;html=1;strokeWidth=1;fontSize=16;entryX=0.5;entryY=0;entryDx=0;entryDy=0;entryPerimeter=0;" parent="GotR1k97WLTgUT0JYA6_-1" source="8Lgw7C_YU9cRXEf3LcRd-131" target="8Lgw7C_YU9cRXEf3LcRd-130" edge="1">
          <mxGeometry relative="1" as="geometry">
            <mxPoint x="435.37931034482756" y="468.76519595455994" as="targetPoint" />
            <Array as="points">
              <mxPoint x="611" y="580" />
              <mxPoint x="286" y="580" />
            </Array>
          </mxGeometry>
        </mxCell>
        <mxCell id="8Lgw7C_YU9cRXEf3LcRd-131" value="返回 NULL" style="rounded=1;whiteSpace=wrap;html=1;absoluteArcSize=1;arcSize=14;strokeWidth=1;fontSize=16;container=0;" parent="GotR1k97WLTgUT0JYA6_-1" vertex="1">
          <mxGeometry x="552.6896551724138" y="390.2880483021148" width="117.31034482758616" height="18.465211212340034" as="geometry" />
        </mxCell>
        <mxCell id="8Lgw7C_YU9cRXEf3LcRd-136" style="edgeStyle=orthogonalEdgeStyle;rounded=0;orthogonalLoop=1;jettySize=auto;html=1;entryX=0.5;entryY=0;entryDx=0;entryDy=0;strokeWidth=1;fontSize=16;" parent="GotR1k97WLTgUT0JYA6_-1" source="8Lgw7C_YU9cRXEf3LcRd-127" target="8Lgw7C_YU9cRXEf3LcRd-131" edge="1">
          <mxGeometry relative="1" as="geometry" />
        </mxCell>
        <mxCell id="8Lgw7C_YU9cRXEf3LcRd-137" style="edgeStyle=orthogonalEdgeStyle;rounded=0;orthogonalLoop=1;jettySize=auto;html=1;strokeWidth=1;fontSize=16;" parent="GotR1k97WLTgUT0JYA6_-1" source="8Lgw7C_YU9cRXEf3LcRd-135" edge="1">
          <mxGeometry relative="1" as="geometry">
            <mxPoint x="285.4827586206896" y="207.7336261388254" as="targetPoint" />
          </mxGeometry>
        </mxCell>
        <mxCell id="8Lgw7C_YU9cRXEf3LcRd-135" value="选择下一个阶数大于请求阶数的空闲列表" style="rounded=1;whiteSpace=wrap;html=1;absoluteArcSize=1;arcSize=14;strokeWidth=1;fontSize=16;container=0;" parent="GotR1k97WLTgUT0JYA6_-1" vertex="1">
          <mxGeometry x="115.37189655172409" y="156.11496752251128" width="340.24344827586197" height="22.66268945201788" as="geometry" />
        </mxCell>
        <mxCell id="8Lgw7C_YU9cRXEf3LcRd-133" style="edgeStyle=orthogonalEdgeStyle;rounded=0;orthogonalLoop=1;jettySize=auto;html=1;strokeWidth=1;fontSize=16;entryX=0.5;entryY=0;entryDx=0;entryDy=0;" parent="GotR1k97WLTgUT0JYA6_-1" source="8Lgw7C_YU9cRXEf3LcRd-127" target="8Lgw7C_YU9cRXEf3LcRd-135" edge="1">
          <mxGeometry relative="1" as="geometry">
            <mxPoint x="285.4827586206896" y="152.3379925018053" as="targetPoint" />
          </mxGeometry>
        </mxCell>
        <mxCell id="8Lgw7C_YU9cRXEf3LcRd-159" style="edgeStyle=orthogonalEdgeStyle;rounded=0;orthogonalLoop=1;jettySize=auto;html=1;exitX=0;exitY=0.5;exitDx=0;exitDy=0;exitPerimeter=0;entryX=0;entryY=0.5;entryDx=0;entryDy=0;strokeWidth=1;fontSize=16;" parent="GotR1k97WLTgUT0JYA6_-1" source="8Lgw7C_YU9cRXEf3LcRd-139" target="8Lgw7C_YU9cRXEf3LcRd-135" edge="1">
          <mxGeometry relative="1" as="geometry">
            <Array as="points">
              <mxPoint x="40" y="230.92005612704793" />
              <mxPoint x="40" y="167.17311105535578" />
            </Array>
          </mxGeometry>
        </mxCell>
        <mxCell id="8Lgw7C_YU9cRXEf3LcRd-139" value="空闲列表是否为空" style="strokeWidth=1;html=1;shape=mxgraph.flowchart.decision;whiteSpace=wrap;fontSize=16;container=0;" parent="GotR1k97WLTgUT0JYA6_-1" vertex="1">
          <mxGeometry x="164.91379310344826" y="207.7336261388254" width="241.13793103448273" height="46.16302803085009" as="geometry" />
        </mxCell>
        <mxCell id="8Lgw7C_YU9cRXEf3LcRd-141" value="Y" style="text;html=1;align=center;verticalAlign=middle;resizable=0;points=[];autosize=1;strokeColor=none;fillColor=none;fontSize=16;container=0;strokeWidth=1;" parent="GotR1k97WLTgUT0JYA6_-1" vertex="1">
          <mxGeometry x="73.15103448275862" y="208.15224087028693" width="30" height="30" as="geometry" />
        </mxCell>
        <mxCell id="8Lgw7C_YU9cRXEf3LcRd-142" value="N" style="text;html=1;align=center;verticalAlign=middle;resizable=0;points=[];autosize=1;strokeColor=none;fillColor=none;fontSize=16;container=0;strokeWidth=1;" parent="GotR1k97WLTgUT0JYA6_-1" vertex="1">
          <mxGeometry x="291.9999999999999" y="131.5646298879228" width="40" height="30" as="geometry" />
        </mxCell>
        <mxCell id="8Lgw7C_YU9cRXEf3LcRd-144" value="N" style="text;html=1;align=center;verticalAlign=middle;resizable=0;points=[];autosize=1;strokeColor=none;fillColor=none;fontSize=16;container=0;strokeWidth=1;" parent="GotR1k97WLTgUT0JYA6_-1" vertex="1">
          <mxGeometry x="292.00448275862067" y="253.89665416967557" width="40" height="30" as="geometry" />
        </mxCell>
        <mxCell id="8Lgw7C_YU9cRXEf3LcRd-154" style="edgeStyle=orthogonalEdgeStyle;rounded=0;orthogonalLoop=1;jettySize=auto;html=1;entryX=0.5;entryY=0;entryDx=0;entryDy=0;entryPerimeter=0;strokeWidth=1;fontSize=16;" parent="GotR1k97WLTgUT0JYA6_-1" source="8Lgw7C_YU9cRXEf3LcRd-151" target="8Lgw7C_YU9cRXEf3LcRd-130" edge="1">
          <mxGeometry relative="1" as="geometry">
            <Array as="points">
              <mxPoint x="285.4827586206896" y="670.7806691660647" />
              <mxPoint x="285.4827586206896" y="670.7806691660647" />
            </Array>
          </mxGeometry>
        </mxCell>
        <mxCell id="8Lgw7C_YU9cRXEf3LcRd-151" value="返回空闲块首页 struct page 地址" style="rounded=1;whiteSpace=wrap;html=1;absoluteArcSize=1;arcSize=14;strokeWidth=1;fontSize=16;container=0;" parent="GotR1k97WLTgUT0JYA6_-1" vertex="1">
          <mxGeometry x="125.82337931034482" y="620.0013383321295" width="319.34482758620686" height="23.081514015425046" as="geometry" />
        </mxCell>
        <mxCell id="Z80G_tGN_LpfkRcTgotM-8" style="edgeStyle=orthogonalEdgeStyle;rounded=0;orthogonalLoop=1;jettySize=auto;html=1;exitX=0;exitY=0.5;exitDx=0;exitDy=0;exitPerimeter=0;entryX=0.5;entryY=0;entryDx=0;entryDy=0;" parent="GotR1k97WLTgUT0JYA6_-1" source="Z80G_tGN_LpfkRcTgotM-1" target="8Lgw7C_YU9cRXEf3LcRd-151" edge="1">
          <mxGeometry relative="1" as="geometry">
            <mxPoint x="285.48275862068954" y="598.440708836293" as="targetPoint" />
            <Array as="points">
              <mxPoint x="40" y="355" />
              <mxPoint x="40" y="580" />
              <mxPoint x="286" y="580" />
            </Array>
          </mxGeometry>
        </mxCell>
        <mxCell id="Z80G_tGN_LpfkRcTgotM-9" style="edgeStyle=orthogonalEdgeStyle;rounded=0;orthogonalLoop=1;jettySize=auto;html=1;" parent="GotR1k97WLTgUT0JYA6_-1" source="Z80G_tGN_LpfkRcTgotM-1" edge="1">
          <mxGeometry relative="1" as="geometry">
            <mxPoint x="285.4936206896551" y="403.29699943315404" as="targetPoint" />
          </mxGeometry>
        </mxCell>
        <mxCell id="Z80G_tGN_LpfkRcTgotM-1" value="当前阶数是否等于请求阶数" style="strokeWidth=1;html=1;shape=mxgraph.flowchart.decision;whiteSpace=wrap;fontSize=16;container=0;" parent="GotR1k97WLTgUT0JYA6_-1" vertex="1">
          <mxGeometry x="164.92465517241374" y="331.7474534645203" width="241.13793103448273" height="46.16302803085009" as="geometry" />
        </mxCell>
        <mxCell id="Z80G_tGN_LpfkRcTgotM-4" value="Y" style="text;html=1;align=center;verticalAlign=middle;resizable=0;points=[];autosize=1;strokeColor=none;fillColor=none;fontSize=16;container=0;strokeWidth=1;" parent="GotR1k97WLTgUT0JYA6_-1" vertex="1">
          <mxGeometry x="73.15103448275862" y="331.7497616159218" width="30" height="30" as="geometry" />
        </mxCell>
        <mxCell id="Z80G_tGN_LpfkRcTgotM-7" value="" style="edgeStyle=orthogonalEdgeStyle;rounded=0;orthogonalLoop=1;jettySize=auto;html=1;" parent="GotR1k97WLTgUT0JYA6_-1" source="Z80G_tGN_LpfkRcTgotM-5" target="Z80G_tGN_LpfkRcTgotM-1" edge="1">
          <mxGeometry relative="1" as="geometry" />
        </mxCell>
        <mxCell id="Z80G_tGN_LpfkRcTgotM-5" value="将第一个空闲块移动到请求请求阶数的空闲链表" style="rounded=1;whiteSpace=wrap;html=1;absoluteArcSize=1;arcSize=14;strokeWidth=1;fontSize=16;container=0;" parent="GotR1k97WLTgUT0JYA6_-1" vertex="1">
          <mxGeometry x="95.07068965517237" y="279.70598347783255" width="380.84586206896546" height="22.66268945201788" as="geometry" />
        </mxCell>
        <mxCell id="8Lgw7C_YU9cRXEf3LcRd-148" style="edgeStyle=orthogonalEdgeStyle;rounded=0;orthogonalLoop=1;jettySize=auto;html=1;exitX=0.5;exitY=1;exitDx=0;exitDy=0;exitPerimeter=0;entryX=0.5;entryY=0;entryDx=0;entryDy=0;strokeWidth=1;fontSize=16;" parent="GotR1k97WLTgUT0JYA6_-1" source="8Lgw7C_YU9cRXEf3LcRd-139" target="Z80G_tGN_LpfkRcTgotM-5" edge="1">
          <mxGeometry relative="1" as="geometry">
            <mxPoint x="285.4827586206896" y="281.59447098818555" as="targetPoint" />
          </mxGeometry>
        </mxCell>
        <mxCell id="Z80G_tGN_LpfkRcTgotM-11" style="edgeStyle=orthogonalEdgeStyle;rounded=0;orthogonalLoop=1;jettySize=auto;html=1;" parent="GotR1k97WLTgUT0JYA6_-1" source="Z80G_tGN_LpfkRcTgotM-10" edge="1">
          <mxGeometry relative="1" as="geometry">
            <mxPoint x="285.4936206896551" y="455.3353219406578" as="targetPoint" />
          </mxGeometry>
        </mxCell>
        <mxCell id="Z80G_tGN_LpfkRcTgotM-10" value="分割空闲块" style="rounded=1;whiteSpace=wrap;html=1;absoluteArcSize=1;arcSize=14;strokeWidth=1;fontSize=16;container=0;" parent="GotR1k97WLTgUT0JYA6_-1" vertex="1">
          <mxGeometry x="171.8220689655172" y="403.29699943315404" width="227.34310344827583" height="22.66268945201788" as="geometry" />
        </mxCell>
        <mxCell id="Z80G_tGN_LpfkRcTgotM-13" style="edgeStyle=orthogonalEdgeStyle;rounded=0;orthogonalLoop=1;jettySize=auto;html=1;" parent="GotR1k97WLTgUT0JYA6_-1" source="Z80G_tGN_LpfkRcTgotM-12" edge="1">
          <mxGeometry relative="1" as="geometry">
            <mxPoint x="285.4990517241379" y="507.3736444481615" as="targetPoint" />
          </mxGeometry>
        </mxCell>
        <mxCell id="Z80G_tGN_LpfkRcTgotM-12" value="分割出的伙伴放入对应空闲链表" style="rounded=1;whiteSpace=wrap;html=1;absoluteArcSize=1;arcSize=14;strokeWidth=1;fontSize=16;container=0;" parent="GotR1k97WLTgUT0JYA6_-1" vertex="1">
          <mxGeometry x="161.318448275862" y="455.3353219406578" width="248.3612068965517" height="22.66268945201788" as="geometry" />
        </mxCell>
        <mxCell id="Z80G_tGN_LpfkRcTgotM-15" style="edgeStyle=orthogonalEdgeStyle;rounded=0;orthogonalLoop=1;jettySize=auto;html=1;exitX=0.5;exitY=1;exitDx=0;exitDy=0;entryX=0.5;entryY=0;entryDx=0;entryDy=0;entryPerimeter=0;" parent="GotR1k97WLTgUT0JYA6_-1" source="Z80G_tGN_LpfkRcTgotM-14" target="Z80G_tGN_LpfkRcTgotM-1" edge="1">
          <mxGeometry relative="1" as="geometry">
            <mxPoint x="496.20689655172396" y="318.73472535846054" as="targetPoint" />
            <Array as="points">
              <mxPoint x="285.48275862068954" y="559.4119669556651" />
              <mxPoint x="507.06896551724117" y="559.4119669556651" />
              <mxPoint x="507.06896551724117" y="312.22993504502256" />
              <mxPoint x="285.48275862068954" y="312.22993504502256" />
            </Array>
          </mxGeometry>
        </mxCell>
        <mxCell id="Z80G_tGN_LpfkRcTgotM-14" value="递减当前阶数" style="rounded=1;whiteSpace=wrap;html=1;absoluteArcSize=1;arcSize=14;strokeWidth=1;fontSize=16;container=0;" parent="GotR1k97WLTgUT0JYA6_-1" vertex="1">
          <mxGeometry x="171.82206896551722" y="507.3736444481615" width="227.34310344827583" height="22.66268945201788" as="geometry" />
        </mxCell>
        <mxCell id="Z80G_tGN_LpfkRcTgotM-57" value="分割伙伴" style="text;html=1;align=center;verticalAlign=middle;resizable=0;points=[];autosize=1;strokeColor=none;fillColor=none;" parent="GotR1k97WLTgUT0JYA6_-1" vertex="1">
          <mxGeometry y="272.37" width="70" height="30" as="geometry" />
        </mxCell>
      </root>
    </mxGraphModel>
  </diagram>
</mxfile>
